<svg xmlns="http://www.w3.org/2000/svg" xmlns:xlink="http://www.w3.org/1999/xlink" width="578" height="578" viewBox="0 0 578 578">
  <defs>
    <clipPath id="clip-Plan_de_travail_4">
      <rect width="578" height="578"/>
    </clipPath>
  </defs>
  <g id="Plan_de_travail_4" data-name="Plan de travail – 4" clip-path="url(#clip-Plan_de_travail_4)">
    <circle id="Ellipse_6" data-name="Ellipse 6" cx="275" cy="275" r="275" transform="translate(14 14)" fill="#36026b"/>
    <text id="E" transform="translate(131 357)" fill="#fff" font-size="300" font-family="MontserratAlternates-Regular, Montserrat Alternates"><tspan x="0" y="0">E</tspan></text>
    <text id="S" transform="translate(274 424)" fill="#fff" font-size="300" font-family="SegoeUI, Segoe UI"><tspan x="0" y="0">S</tspan></text>
    <path id="Ellipse_5" data-name="Ellipse 5" d="M251,0h1.509l.263,0h.241l.231,0h.278l.191,0h.239c.034,0,.056,0,.09,0L255,.031l-.047,3C253.645,3.01,252.314,3,251,3V0Zm11,.237q.685.03,1.369.063h.012l.111.005h.011l.117.006.038,0,.071,0,.062,0,.045,0,.072,0h.028c.685.035,1.377.073,2.061.113l-.176,2.995c-1.309-.077-2.637-.145-3.948-.2Zm10.977.712q1.621.141,3.236.3h0l.371.037h.006l.107.011.027,0,.086.009.036,0,.08.008.031,0-.307,2.984c-1.3-.134-2.627-.259-3.933-.373Zm10.934,1.189.865.115h.006l.118.016h0l.244.033h.01l.109.015.015,0,.109.015h.01l.238.033.019,0,.1.014.02,0,.111.015h0l.238.033.022,0,.1.014.022,0,.113.016h0l.12.017.014,0,.1.014.031,0,.09.013.025,0,.229.033.032,0,.081.012.039.006.079.011.036.005.1.014.05.007.071.01.055.008.053.008.063.009.041.006.177.026-.437,2.968c-1.3-.191-2.612-.374-3.912-.544Zm10.871,1.667.058.01.02,0,.084.015.014,0,.271.048.012,0,.082.015.025,0,.078.014.023,0,.248.044.035.006.068.012.044.008.063.011.056.01.088.016.066.012.046.008.07.013.042.008.089.016.02,0,.117.021.009,0,.109.02.017,0,.108.02.008,0q.982.181,1.962.369l-.567,2.946c-1.288-.248-2.6-.489-3.888-.716ZM305.57,5.949q1.956.434,3.9.9l-.7,2.918c-1.276-.3-2.572-.6-3.853-.887Zm10.685,2.617c1.287.346,2.576.7,3.855,1.068l-.824,2.884c-1.261-.36-2.542-.715-3.809-1.055l.778-2.9Zm10.558,3.086c1.172.371,2.336.749,3.5,1.136l.011,0,.292.1-.951,2.845c-1.243-.416-2.508-.827-3.757-1.222l.905-2.86ZM337.223,15.2l.885.326.008,0,.085.031.006,0,.258.1.01,0,.08.03.017.007.249.093.013,0,.075.028.025.009.074.028.014.005.16.06.01,0,.069.026.034.013.065.025.041.015.071.027.08.03.05.019.058.022.045.017.07.027.032.012.108.041h0l.11.042.012,0,.927.354-1.076,2.8c-1.224-.47-2.468-.937-3.7-1.387Zm10.244,4.005q.794.331,1.585.667h0l.072.03.032.014.063.027.045.019.069.029.082.035.033.014.076.032.03.013.1.041.006,0,.228.1h0q.631.271,1.261.545l-1.2,2.75c-1.2-.524-2.425-1.045-3.635-1.549l1.154-2.769Zm10.057,4.453.043.02.032.015.067.031.02.01.237.111.011.005.082.039h0l.257.122h0l.085.04h0l.256.122h0l.082.039.009,0,.249.119,0,0,.076.036.019.009.074.036.009,0,.153.073.014.007.067.032.031.015.063.03.036.017.1.048.05.024.049.024.052.025.046.022.067.032.034.016.1.046.035.017.068.033.038.018.07.034.033.016.1.048.021.01.083.04.028.014.083.04.021.01.1.051.006,0,.1.047.024.012.083.041.023.011.207.1.009,0-1.318,2.695c-1.178-.576-2.377-1.151-3.564-1.708l1.275-2.716Zm9.851,4.891.841.443h0l.082.043.007,0,.231.122.024.013.065.034.03.016.216.115.022.012.068.036.024.013.319.17,0,0c.537.287,1.061.571,1.6.862l-1.435,2.634c-1.152-.628-2.325-1.254-3.486-1.863l1.393-2.657ZM377,33.871q1.08.628,2.154,1.267l0,0q.644.383,1.285.77L378.9,38.478c-1.123-.677-2.267-1.355-3.4-2.014Zm9.385,5.737q1.684,1.081,3.349,2.187l-1.66,2.5c-1.092-.726-2.206-1.453-3.309-2.161Zm9.125,6.142.164.115.013.009.063.045.026.018.059.042.03.021.091.064.049.035.04.028.056.039.035.025.089.063.01.007.083.059.027.019.069.049.025.018.187.133.022.016.071.051.027.019.184.131.028.02.064.046.032.023.066.048.039.028.072.051.042.03.046.033.047.034.042.031.092.066.031.023.058.042.027.019.061.044.016.011q.535.386,1.07.776L396.994,50.5c-1.06-.773-2.14-1.548-3.211-2.3Zm8.848,6.535,0,0,.084.065.017.013.087.067.037.029.047.036.053.041.026.02c.931.722,1.87,1.461,2.79,2.2L405.633,57.1c-1.025-.818-2.07-1.64-3.108-2.442Zm8.554,6.915.009.007.083.07.007.006q.426.361.851.723l.006,0,.092.078h0l.094.081,0,0,.084.072.021.018.065.056.026.022.081.069.032.028.05.043.043.037.038.032.047.041.021.018.105.091.024.021.056.049.02.017.194.167.011.01.062.053.017.014.18.155.032.028.045.039.041.036.04.035.08.069.01.009.079.069.015.013.368.321-1.972,2.26c-.988-.862-2-1.729-3-2.575Zm8.245,7.281q1.47,1.356,2.918,2.736l-2.069,2.172c-.95-.9-1.92-1.814-2.884-2.7Zm7.92,7.633c.309.312.614.62.922.933l.014.014.051.052.036.037.037.038.076.078.014.015.073.075.008.008q.786.8,1.564,1.611l-2.162,2.08c-.909-.945-1.839-1.9-2.763-2.826l2.128-2.114Zm7.58,7.971q1.346,1.479,2.669,2.979l-2.25,1.984c-.867-.984-1.755-1.974-2.637-2.944Zm7.226,8.293c.221.265.45.541.67.807l.02.024.045.054.033.04.047.057.053.064.027.032.048.059.024.029.147.179.007.008.074.09,0,0q.674.821,1.341,1.647l-2.334,1.884c-.824-1.02-1.667-2.048-2.507-3.056Zm6.857,8.6.027.036.009.012c.8,1.05,1.58,2.09,2.363,3.153l-2.414,1.781c-.778-1.055-1.576-2.119-2.371-3.162l2.386-1.819Zm6.475,8.891.5.718,0,0,.059.086.018.026.05.072.043.063.026.038.045.065.011.016c.508.739,1.005,1.47,1.506,2.215l-2.49,1.673c-.731-1.088-1.482-2.186-2.231-3.263Zm6.081,9.165.331.524.012.019.046.074.024.039.032.052.029.047.017.028.073.116.016.025.041.066.012.019.142.227,0,0,.048.077,0,.006.2.316,0,0,.193.312.01.015.044.071,0,.006.087.141.011.017.037.06.02.033.035.057.025.04.048.078.036.059.027.043.033.053.026.042.038.062.02.032.056.092.019.03.041.067.02.033.047.076.012.019.06.1.012.02.048.079.016.027.048.079.009.015-2.561,1.563c-.683-1.119-1.385-2.249-2.086-3.357Zm5.674,9.423c.239.418.473.829.71,1.249l.005.009.043.076.006.01.069.122.022.039.025.045.033.059.021.037.045.08.009.016.059.1,0,.005.057.1,0,.007q.427.762.849,1.527l-2.627,1.449c-.633-1.148-1.285-2.308-1.937-3.446l2.6-1.491Zm5.255,9.663q.428.829.849,1.662l.008.017.043.085.012.024.049.1.02.04.028.056.029.058.016.031c.25.5.5,1,.75,1.5l-2.688,1.332c-.582-1.175-1.182-2.362-1.784-3.528ZM479.051,146q.26.564.517,1.129l.006.013.047.1,0,.006.051.112h0l.047.1.009.02.041.089.009.02.1.212.011.023.039.087.009.021.1.214.008.019.04.089.01.022.1.214.007.015.041.092.01.021.043.1,0,.009.049.11.005.011.042.093.012.026.039.088.007.017.047.106.01.022.036.08.018.04.026.06.021.047.024.054.048.109.01.023.012.026-2.744,1.213c-.53-1.2-1.077-2.411-1.626-3.6Zm4.385,10.088.137.337.008.02.034.084.012.03.038.095.024.059.015.038.027.068.01.025c.093.229.188.464.28.694v0l.137.343.008.019.03.074.01.025.063.157v0l.019.049.024.061.016.041.03.074.011.028.089.224v0q.23.581.457,1.163l-2.795,1.09c-.476-1.221-.969-2.455-1.465-3.669Zm3.936,10.27c.1.286.206.577.307.863l0,.006.083.235.017.047.018.051.023.065.014.039.037.1,0,.012.035.1.008.024.032.092.007.019.08.228v0l.04.115v0q.308.884.61,1.772l-2.84.966c-.422-1.241-.86-2.5-1.3-3.73l2.824-1.011Zm3.479,10.434q.239.775.474,1.552v0l.072.238v0l.031.1.01.034.023.077.011.037.025.083.019.063.018.059.018.06.013.043.02.067.009.029.073.247,0,.014.025.086,0,.005.108.367h0l.106.361,0,.016.023.079.007.025.045.153,0,.015,0,.013-2.88.84c-.367-1.259-.749-2.532-1.136-3.785Zm3.015,10.578.009.035.013.048.014.054.022.086.01.039.023.089.009.034.02.079.009.034.025.1,0,.014.029.114,0,.017.025.1.007.025.023.091.006.025.057.221.009.035.02.077.01.038.02.076.009.035.026.1.012.046.016.061.014.055.012.049.015.061.008.033.035.14.006.024.019.075.007.028.02.079,0,.012.068.27v.005l.023.091v0c.063.251.124.5.186.751v0l.022.091,0,.007.063.258.007.027.016.066.012.047.009.035-2.914.712c-.311-1.274-.637-2.563-.968-3.832Zm2.545,10.7.088.41.008.039.013.061.016.077.006.027.025.117v0q.336,1.588.652,3.183l-2.943.582c-.255-1.287-.524-2.59-.8-3.873l2.933-.63Zm2.071,10.8q.26,1.538.5,3.082v0l.038.245v.006l.017.107,0,.027.014.089,0,.029.016.1,0,.018.016.1.007.047.009.062,0,.028-2.966.452c-.2-1.3-.409-2.609-.627-3.9Zm1.594,10.885v.01l.012.094,0,.031.01.084.007.054.01.08.008.064.005.044.009.07,0,.035.009.075,0,.014.021.174v.012l.009.078,0,.03.009.076,0,.032.009.076,0,.017.017.14.006.049.007.057.007.059.006.05.009.079,0,.03.014.117h0l.014.119v.011l.013.116v0q.115.992.223,1.987l-2.983.322c-.141-1.3-.294-2.623-.455-3.923Zm1.116,10.94c.032.4.061.779.091,1.178v.014l.007.089V232l.02.269,0,.027.005.074,0,.037.005.072,0,.036.018.252,0,.028.005.076,0,.034.005.077,0,.026c.006.091.013.183.019.275v.008l.006.092v.011c.03.432.059.871.087,1.3l-2.994.192c-.084-1.309-.18-2.635-.284-3.942l2.99-.239Zm.639,10.979c.016.436.031.869.044,1.306v.034l0,.069v.047l0,.063,0,.064v.046l0,.11v.037l0,.081v.037l0,.085v.03l0,.108v.007l0,.121v.012l0,.1v.027l0,.093v.028l0,.1v.018l0,.118v.018l0,.1v.039l0,.071v.2c0,.093,0,.173.006.266v.008c0,.185.008.367.012.552l-3,.062c-.027-1.313-.065-2.643-.113-3.953l3-.109Zm-2.836,10.986,3,.02c-.007,1.022-.02,2.049-.039,3.068v.01l0,.086v.223l0,.1v.021q0,.053,0,.105v.009q0,.185-.008.369l-3-.067C498.967,255.309,498.986,253.98,498.995,252.668Zm-.306,10.863,3,.149q-.1,2-.23,4l-2.994-.2C498.547,266.171,498.624,264.842,498.689,263.531Zm-.776,10.843,2.987.279-.023.246v.013l-.009.1,0,.038-.007.071,0,.051,0,.051-.014.144v.013l-.008.079,0,.029-.008.081,0,.018c-.013.132-.024.242-.037.374l0,.018-.009.086,0,.016-.027.271,0,.018-.008.075,0,.037-.007.07,0,.041-.007.068-.005.049-.011.109-.005.052-.006.06-.006.054-.006.056-.006.06-.005.052-.011.1-.005.049-.006.062-.006.055-.006.057-.006.058-.005.05-.025.239,0,.027-.009.084,0,.016c-.025.23-.048.448-.073.678l-2.982-.327C497.657,277,497.791,275.68,497.913,274.374Zm-1.248,10.8,2.972.41c-.182,1.321-.375,2.643-.577,3.957l-2.965-.457C496.295,287.785,496.486,286.47,496.665,285.171Zm-1.719,10.73,2.951.54q-.247,1.351-.509,2.7l0,.008-.069.354,0,.025-.017.089-.006.03-.019.1,0,.017-.022.11-.007.037-.015.074-.009.043-.014.07-.009.044-.016.081-.012.063-.013.068,0,.019-2.942-.587C494.461,298.5,494.71,297.191,494.946,295.9Zm-2.189,10.643,2.924.669q-.4,1.766-.833,3.522l0,.018-.022.09-.008.034-.019.079-.009.035-.025.1,0,.011-2.913-.716C492.157,309.116,492.464,307.823,492.757,306.544ZM490.1,317.08l2.892.8-.145.522-.009.032-.018.065-.028.1,0,.011-.03.106,0,.014q-.285,1.018-.578,2.033l0,.011-.028.1-.008.027-.024.083-.009.031-.028.1-.021.073-.007.025-.151.518-2.879-.844C489.388,319.624,489.751,318.345,490.1,317.08Zm-3.12,10.41,2.854.924-.02.061-.006.019-.024.073-.011.035-.022.068,0,.011-.044.136-.016.05-.018.054-.018.056-.016.05-.023.07-.021.063-.023.072-.016.047-.019.059-.017.051-.019.057-.022.068-.025.076-.019.057-.016.049-.02.06-.013.041-.075.228-.009.027-.024.074-.008.024-.117.351v0c-.091.274-.182.545-.275.819v0l-.118.349-.009.027-.024.071-.012.036-.021.063-.033.1-.012.036-.027.079-.009.026-.036.106-2.839-.97C486.156,330,486.576,328.738,486.981,327.49ZM483.4,337.753l2.81,1.05-.063.168-.019.05-.017.044-.026.07-.012.033-.038.1h0l-.088.234h0q-.219.582-.442,1.163l0,.011-.087.227,0,.007-.038.1-.01.027-.031.08-.012.032-.039.1-.011.028-.029.074-.019.048-.021.055-.02.053-.018.046-.046.118-.01.026-.026.068-.012.031-.028.071-.007.019-.094.242-.007.018-.03.077-.006.016-.1.243-.008.019-.013.032-2.793-1.095C482.47,340.223,482.946,338.981,483.4,337.753Zm-4.026,10.094,2.761,1.172-.294.689v0l-.144.336-.008.018-.039.091-.009.021-.046.107v0l-.042.1-.016.038-.029.067-.017.04-.03.069-.023.053-.033.076-.021.049-.023.053-.023.052-.022.05-.03.068-.032.073-.023.054-.021.048-.024.054-.02.047-.024.054-.039.089-.021.049-.024.056-.022.049-.024.055-.02.046-.037.084-.018.041-.033.076-.015.035-.032.074-.013.03-.1.216,0,.006-.2.453-2.742-1.217C478.337,350.273,478.866,349.053,479.379,347.847Zm-4.466,9.907,2.707,1.293c-.246.515-.489,1.02-.739,1.533l-.007.014-.033.068-.015.032-.031.063-.019.039-.043.089-.029.059-.02.042-.032.066-.016.033-.1.208-.006.011-.049.1,0,.008q-.3.615-.607,1.229l-2.686-1.336C473.765,360.131,474.347,358.936,474.912,357.753Zm-4.9,9.7,2.648,1.411q-.352.661-.708,1.32l0,0-.117.216,0,.008-.05.092-.014.026-.043.079-.013.025-.052.1-.02.037-.032.059-.027.049-.025.045-.029.053-.018.032-.065.119-.014.025-.036.066-.014.025-.038.069,0,.005-.084.154-.006.01-.039.071-.011.021-.038.07-.008.015-.071.129-.016.03-.031.056-.024.044-.027.048-.038.07-.014.025-.055.1-.01.019-.051.092,0,.007-.059.106-2.625-1.453C468.763,369.779,469.4,368.611,470.014,367.454Zm-5.32,9.476,2.583,1.526c-.373.632-.743,1.252-1.122,1.88l-.007.012-.044.073-.008.014-.126.209-.024.039-.03.05-.032.053-.024.039-.056.092-.014.023-.047.077-.015.025-.057.094h0q-.227.374-.455.747l-2.559-1.567C463.342,379.2,464.028,378.059,464.695,376.93Zm-5.73,9.234,2.514,1.637c-.73,1.122-1.462,2.226-2.21,3.335l-2.487-1.677C457.514,388.372,458.249,387.263,458.964,386.164Zm-6.129,8.975,2.44,1.746c-.43.6-.856,1.191-1.291,1.788v0l-.049.068-.018.025-.043.059-.03.042-.055.076-.038.053-.026.036-.045.062-.021.029-.066.09-.007.01-.06.082-.017.023-.057.078-.011.015-.07.1,0,0-.065.089-.017.023-.05.068-.022.03-.056.076-.034.046-.036.048-.04.054-.02.027-.1.14-2.412-1.784C451.29,397.281,452.072,396.206,452.835,395.139Zm-6.515,8.7,2.361,1.85-.04.052,0,0-.166.212-.008.011-.044.055-.024.031-.041.052-.032.041-.042.053-.055.07-.026.034-.046.058-.024.03-.058.074-.011.014-.073.093-.007.009-.067.085-.01.012q-.579.731-1.163,1.458l0,.005-.072.09-.005.007-.075.093-.009.011-.057.071-.032.04-.033.041-.262.325-2.332-1.888C444.683,405.911,445.511,404.871,446.32,403.838Zm-6.889,8.407,2.278,1.952c-.75.876-1.5,1.736-2.259,2.6l-.023.026-.035.04-.047.053-.021.024-.24.272-2.247-1.987C437.705,414.244,438.578,413.241,439.431,412.245Zm-7.248,8.1,2.191,2.049-.127.136-.01.01-.055.059-.024.025-.062.066-.055.058-.027.029-.058.061-.018.02-.163.174h0l-.083.088,0,0-.252.267-.006.006-.167.176-.009.009-.068.072-.022.024-.057.061-.023.024-.071.074-.038.04-.036.038-.045.047-.022.023q-.624.656-1.252,1.307l-2.159-2.083C430.371,422.265,431.287,421.3,432.183,420.344Zm-7.594,7.775,2.1,2.142,0,0-.081.079-.013.013-.069.068-.02.02-.075.073-.006.006-.088.086h0l-.083.081-.011.011-.259.252-.008.008-.264.257h0l-.267.258,0,0-.263.254-.01.01-.077.075-.01.01-.166.16-.026.025-.056.054-.028.027-.071.068-.041.039-.04.039-.047.045-.026.025c-.249.239-.51.487-.76.725l-2.066-2.175C422.7,429.96,423.652,429.037,424.589,428.119Zm-7.926,7.437,2,2.232-.464.416,0,0-.09.081,0,0-.181.162-.011.01-.081.072-.008.007-.181.161-.009.008-.083.074-.008.007-.18.16-.01.009-.081.072-.009.008-.181.16-.009.008-.083.074-.008.007-.183.161,0,0-.09.079,0,0q-.516.454-1.034.9l-1.969-2.263C414.691,437.313,415.687,436.432,416.663,435.556Zm-8.242,7.085,1.906,2.317q-1.154.949-2.319,1.884l-.023.019-.067.054-.025.02-.085.068-.028.022-.059.047-.04.032-.043.034-.047.037-.032.025-.1.078-.027.022-.058.046-.021.017-.139.111-1.869-2.347C406.374,444.31,407.408,443.474,408.421,442.641Zm-8.543,6.719,1.8,2.4-.032.024-.04.03-.043.033-.067.05-.023.017-.084.063-.027.02-.069.052-.023.017-.187.14-.014.01-.082.061-.016.012-.188.14-.017.012-.075.056-.024.018-.08.06-.011.008-.088.065-.034.026-.055.041-.039.029-.048.035-.18.134-.021.016-.066.049-.008.006c-.524.388-1.044.769-1.572,1.152l-1.764-2.426C397.761,450.938,398.83,450.148,399.878,449.36Zm-8.828,6.34,1.7,2.474q-.618.424-1.238.843h0l-.1.068-.012.008-.078.053-.037.025-.05.034-.048.032-.014.01-.14.094-.005,0q-.793.534-1.592,1.063l-1.657-2.5C388.866,457.184,389.969,456.441,391.05,455.7Zm-9.1,5.947,1.586,2.546q-.795.5-1.594.985l0,0-.092.056-.025.015-.076.047-.025.015-.091.056-.043.026-.048.029-.054.033-.033.02-.221.134,0,0-.078.048,0,0c-.344.209-.676.41-1.021.617l-1.546-2.571C379.707,463.034,380.841,462.34,381.954,461.646Zm-9.348,5.543,1.473,2.613-.978.548-.007,0-.1.057-.005,0-.208.116-.021.012-.084.047-.019.01-.2.112-.029.016-.071.039-.032.018-.084.047-.015.008-.1.053-.034.019-.067.037-.034.019-.072.04-.029.016-.092.051-.04.022-.057.031-.044.024-.058.032-.041.022-.088.048-.049.027-.048.026-.05.027-.047.025-.2.108-.032.017-.063.034-.029.016-.228.124,0,0-.078.042-.01.006-.056.03-1.431-2.637C370.3,468.477,371.464,467.833,372.607,467.189Zm-9.582,5.127,1.357,2.676-.013.007-.081.041-.025.013-.1.049-.038.019-.06.03-.048.024-.05.025-.05.025-.052.026-.093.047-.039.02-.06.03-.036.018-.061.031-.029.014-.126.063-.024.012-.063.031-.036.018-.058.029-.045.023-.087.044-.052.026-.052.026-.048.024-.048.024-.059.029-.041.02-.094.047-.034.017-.067.033-.037.019-.076.038-.024.012-.1.05-.021.01-.083.041-.028.014-.079.039-.026.013-.1.05-.013.007-.088.043-.031.015-.073.036-.033.016-.082.04-.047.023-.065.032-.049.024-.05.024-.054.027-.035.017-.224.11-.007,0-.385.188-1.314-2.7C360.665,473.5,361.855,472.91,363.025,472.317Zm-9.8,4.7,1.238,2.733q-.568.257-1.136.511l-.015.007-.086.039-.038.017-.058.026-.051.023-.031.014-.132.059-.018.008-.081.036-.005,0c-.668.3-1.334.589-2.006.881l-1.194-2.752C350.817,478.1,352.033,477.559,353.227,477.018Zm-10,4.265,1.116,2.785q-.807.324-1.617.642l-.02.008-.091.036-.021.008-.1.04-.038.015-.064.025-.05.02-.05.02-.059.023-.021.008-.153.059-.009,0-.078.03-.019.007-.345.134,0,0-.353.137h0l-.087.034h0l-.246.094-.028.011-.065.025-.041.016-.057.022-.082.031-.017.007-1.071-2.8C340.776,482.256,342.015,481.771,343.232,481.283Zm-10.174,3.82.992,2.831c-1.081.379-2.173.753-3.26,1.117l-.023.008-.061.021-.057.019-.04.013-.343.115-.947-2.847C330.563,485.967,331.821,485.537,333.058,485.1Zm-10.333,3.367.866,2.872-.037.011-.061.019-.039.012-.086.026-.02.006-.233.07h0q-1.254.376-2.513.738l-.006,0-.354.1-.008,0-.116.033h0l-.361.1-.82-2.886C320.2,489.223,321.471,488.849,322.726,488.471Zm-10.469,2.907.739,2.908q-.968.246-1.938.484h0l-.116.028-.007,0-.237.058-.01,0-.1.024-.027.007-.1.023-.017,0-.116.028h-.006l-.106.026-.026.006L310.1,495l-.02,0-.966.231-.692-2.919C309.695,492.018,310.986,491.7,312.256,491.378Zm-10.588,2.443.61,2.937c-.837.174-1.667.342-2.506.507l-.015,0-.084.017-.019,0-.245.048-.043.008-.06.012-.059.012-.047.009-.226.044-.014,0-.111.021h-.005l-.489.094-.563-2.947C299.081,494.347,300.385,494.087,301.668,493.82Zm-10.686,1.974.48,2.961q-1.475.239-2.955.461l-.021,0-.1.015-.016,0-.233.035-.029,0-.085.013-.038.006-.083.012-.031,0-.112.016-.023,0-.091.013-.037.005-.077.011-.024,0-.433-2.969C288.373,496.206,289.688,496,290.982,495.794Zm-10.764,1.5.35,2.98q-.91.107-1.822.207h-.011l-.076.008-.038,0-.068.007-.051.006-.056.006-.108.012-.024,0-.1.01-.024,0-.1.011-.015,0q-.743.08-1.488.155l-.3-2.985C277.594,497.595,278.916,497.45,280.218,497.3ZM269.4,498.328l.219,2.992-.692.05h-.012l-.083.006-.033,0-.071,0-.055,0-.082.006-.08.006-.044,0-.073.005-.042,0-.081.005-.034,0-.109.007h-.006l-.116.008-.029,0-.086.006-.038,0-.078.005-.039,0-.09.006-.025,0-.109.007-.046,0-.065,0-.055,0-.056,0-.06,0-.045,0-.243.015-.031,0-.08.005h-.024l-.086.005h0l-.287.018h-.014l-.087.005h-.02l-.088.005h0l-.272.016-.037,0-.066,0-.053,0-.054,0-.088.005h-.019l-.172-3C266.764,498.511,268.09,498.424,269.4,498.328Zm-10.853.559.09,3h-.013l-.1,0H258.5l-.233.007h-.038l-.124,0-.059,0-.057,0h-.051l-.14,0-.1,0h-.03l-.081,0h-.024l-.093,0c-.807.02-1.6.037-2.412.05h-.1l-.106,0h-.108l-.109,0h-.006l-.043-3C255.905,498.956,257.234,498.927,258.544,498.887Zm-14.827.008c1.31.038,2.639.066,3.95.083l-.039,3q-2-.026-4-.084Zm-10.854-.548c1.307.094,2.633.18,3.942.254l-.169,3-.433-.025-.034,0-.068,0-.05,0-.058,0-.076,0-.034,0-.114-.007h-.025l-.1-.006h-.024l-.106-.006h-.01q-1.179-.072-2.356-.154l-.023,0-.089-.006-.036,0-.073-.005-.047,0h-.009l-.229-.016Zm-10.823-1.02c1.3.151,2.625.295,3.931.426l-.3,2.985q-.929-.093-1.857-.193l-.021,0-.092-.01-.031,0-.093-.01-.071-.008-.052-.006-.073-.008-.032,0-.082-.009h-.01c-.526-.058-1.038-.116-1.563-.177Zm-10.765-1.492c1.295.208,2.61.409,3.908.6l-.429,2.969-.313-.045-.014,0-.086-.013-.017,0-.275-.04h-.008l-.079-.012-.031,0-.074-.011-.033,0-.229-.034-.055-.008-.054-.008-.061-.009-.049-.007-.08-.012-.03,0-.111-.017-.032,0-.083-.013-.036-.005-.088-.013-.025,0-.232-.035-.023,0-.093-.014-.028,0-.1-.015-.017,0-.116-.018-.022,0-.09-.014-.041-.006-.069-.011-.049-.008-.057-.009-.244-.038H211.7l-.9-.144Zm-10.688-1.963c1.284.265,2.588.524,3.876.768l-.56,2.947-.03-.006-.02,0-.125-.024-.057-.011-.046-.009-.07-.013-.039-.007-.085-.016-.026,0-.232-.045-.016,0-.1-.02-.016,0-.356-.069-.014,0-.109-.021-.01,0-.239-.047-.011,0-.1-.02-.023,0-.1-.021-.01,0-.12-.024h0l-.112-.022-.025,0-.091-.018-.028-.006-.228-.046-.023,0-.094-.019-.026-.005-.1-.02-.015,0-.237-.048-.012,0-.114-.023h0l-.855-.175ZM190,491.442c1.271.321,2.562.637,3.838.938l-.689,2.92c-.718-.169-1.426-.34-2.142-.515h0l-.09-.022-.011,0-.254-.062-.03-.007-.063-.016-.049-.012-.056-.014-.072-.018-.033-.008-.11-.027-.02-.005-.1-.025-.013,0-.841-.211Zm-10.473-2.9c1.255.377,2.531.749,3.792,1.106l-.817,2.887-.018-.005-.063-.018-.079-.022-.063-.018-.054-.015-.054-.015-.054-.015-.058-.016-.05-.014-.1-.028-.041-.012-.068-.019-.044-.013-.073-.021-.034-.01-.109-.031-.006,0-.106-.031-.022-.006-.1-.028-.016,0q-1.018-.294-2.032-.6h0l-.23-.069-.04-.012-.06-.018-.066-.02-.022-.007-.18-.054Zm-10.336-3.356c1.238.432,2.5.861,3.741,1.273l-.944,2.848q-.947-.314-1.89-.635l-.015-.005-.1-.034-.014,0-.111-.038-.018-.006-.088-.03-.039-.013-.066-.023-.044-.015-.073-.025-.059-.02-.072-.025-.048-.017-.06-.02-.046-.016-.07-.024-.035-.012-.105-.036-.022-.008-.089-.031-.024-.008-.7-.242Zm-10.178-3.809c1.218.487,2.457.971,3.683,1.438l-1.069,2.8q-1.871-.713-3.727-1.455Zm-10-4.254c1.2.54,2.411,1.078,3.615,1.6l-1.191,2.753-.411-.178-.009,0-.072-.031-.043-.019-.049-.021-.1-.044-.01,0-.1-.045-.006,0q-1.086-.474-2.166-.958l-.008,0-.1-.046-.012-.005-.217-.1-.019-.008-.086-.039-.027-.012-.093-.042-.01,0-.106-.048-.005,0Zm-9.8-4.691c1.17.592,2.361,1.183,3.541,1.756l-1.311,2.7-.966-.472h0l-.083-.041,0,0-.237-.117-.024-.012-.068-.034-.025-.013-.218-.108-.03-.015-.064-.032-.031-.015-.067-.033-.014-.007-.136-.067-.028-.014-.067-.033-.027-.013-.069-.034-.016-.008-.149-.074-.01,0-.072-.036-.021-.01-.073-.036-.013-.006-.233-.117-.02-.01-.071-.036-.021-.011-.148-.074-.006,0-.057-.029-.042-.021-.055-.027-.05-.025-.046-.023-.094-.048-.026-.013-.079-.04-.026-.013-.091-.046-.007,0Zm-9.587-5.117c1.143.643,2.307,1.285,3.46,1.909l-1.429,2.638c-1.175-.636-2.338-1.278-3.5-1.933Zm-9.353-5.533c1.114.692,2.248,1.385,3.373,2.059l-1.543,2.573-.024-.014-.031-.019c-.825-.5-1.639-.99-2.458-1.494l-.033-.02-.049-.03-.052-.032-.038-.024-.082-.051-.011-.007-.1-.063-.007,0-.1-.061,0,0-.423-.262Zm-9.1-5.938c1.082.74,2.186,1.482,3.279,2.2l-1.654,2.5c-.571-.378-1.145-.76-1.713-1.142l-.032-.021-.047-.032-.055-.037-.034-.023-.195-.131-.005,0q-.62-.419-1.237-.841Zm-8.835-6.33c1.049.787,2.119,1.576,3.18,2.346l-1.762,2.428-.008-.006q-.957-.694-1.907-1.4l0,0-.2-.147-.007,0-.088-.065-.014-.011-.188-.139-.022-.016-.07-.052-.027-.02-.076-.056-.015-.011-.087-.065-.033-.025-.055-.041-.041-.03-.05-.038-.046-.034-.07-.053-.053-.04-.032-.024-.059-.044-.017-.013-.054-.041Zm-8.55-6.71c1.014.832,2.049,1.667,3.075,2.483l-1.866,2.349q-.781-.621-1.558-1.247l-.009-.007-.084-.067-.013-.01-.092-.075,0,0-.084-.068-.03-.024-.056-.045-.038-.031-.048-.039-.083-.068-.026-.021-.059-.048-.021-.017q-.457-.371-.911-.744Zm-8.249-7.076c.977.875,1.974,1.755,2.964,2.615l-1.967,2.265-.7-.611-.02-.018-.055-.048-.032-.028-.064-.056L85.6,439.8l-.033-.029-.054-.047-.03-.026-.07-.062-.014-.012-.089-.078-.008-.007-.083-.073-.01-.009q-.838-.738-1.67-1.483l-.008-.007ZM77.6,428.3c.938.917,1.9,1.839,2.847,2.741l-2.064,2.178q-.906-.859-1.8-1.726l-.006-.005-.262-.254-.009-.009-.079-.077-.007-.007-.173-.168-.008-.008-.084-.082h0l-.447-.436ZM70,420.534c.9.957,1.814,1.92,2.725,2.863l-2.156,2.086-.653-.678-.022-.023-.042-.044-.042-.043-.032-.033-.076-.079h0l-.081-.085-.012-.012-.078-.082,0,0q-.474-.5-.945-.994l0,0-.072-.076-.02-.021-.061-.065-.03-.032-.056-.059-.051-.054-.017-.018-.461-.49Zm-7.257-8.091c.854,1,1.728,2,2.6,2.979l-2.245,1.99-.414-.468h0l-.069-.078-.025-.029-.044-.05-.153-.174,0,0c-.352-.4-.7-.8-1.051-1.2l0,0-.169-.2-.021-.024-.046-.054-.026-.03-.044-.051-.064-.074-.031-.036-.044-.051-.03-.034-.049-.057-.024-.028-.073-.085-.011-.012-.064-.074-.019-.022-.063-.073-.011-.013-.077-.09h0Zm-6.9-8.4c.81,1.031,1.64,2.071,2.466,3.089l-2.33,1.89L55.959,409l-.042-.052-.026-.032-.067-.083-.022-.027-.05-.062-.026-.032-.048-.059-.024-.029-.069-.085-.014-.018-.057-.07-.024-.03-.05-.063-.021-.026-.068-.085-.02-.025-.05-.062-.028-.035-.043-.053-.028-.035-.056-.069-.036-.045-.042-.052-.034-.043-.036-.044-.033-.042-.038-.048-.061-.076-.03-.038-.04-.05-.026-.033-.042-.052-.023-.028-.083-.1-.019-.024-.044-.055-.023-.028-.044-.055-.017-.022-.1-.121L54.351,407l-.049-.062-.016-.02-.049-.062-.01-.013-.16-.2-.014-.018L54,406.56l-.014-.018-.1-.127-.007-.008-.046-.059-.02-.026-.044-.056-.023-.03-.074-.094-.027-.034-.037-.047-.033-.042-.033-.042-.043-.055-.021-.027Zm-6.524-8.692c.764,1.066,1.548,2.14,2.329,3.194l-2.41,1.787-.041-.055-.007-.01-.052-.07-.006-.008-.158-.214-.009-.013-.05-.068-.008-.01-.161-.219,0,0-.054-.074,0,0c-.605-.823-1.21-1.656-1.806-2.486Zm-6.138-8.969c.717,1.1,1.453,2.206,2.187,3.293l-2.486,1.68-.115-.171,0,0-.047-.07-.011-.017-.138-.2-.018-.027-.037-.055-.025-.037-.035-.052-.031-.046-.053-.079-.031-.046L42.3,390.5l-.032-.048-.029-.043-.04-.06-.038-.057-.041-.061-.026-.039-.038-.056-.025-.037-.052-.077L41.971,390l-.059-.088-.023-.035-.041-.061-.022-.033-.049-.074-.014-.021L41.7,389.6l-.018-.027-.047-.07-.018-.027-.058-.088,0-.006-.065-.1-.012-.018-.054-.082-.011-.017-.2-.3,0-.005q-.274-.417-.547-.834Zm-5.74-9.228c.668,1.128,1.354,2.267,2.04,3.385l-2.557,1.569-.017-.028-.033-.054-.033-.054-.018-.03c-.255-.417-.517-.846-.77-1.265l-.014-.022L36,380.59l-.018-.029-.053-.088-.034-.057-.024-.04-.039-.065-.017-.029q-.48-.8-.955-1.6Zm-5.33-9.471c.618,1.156,1.253,2.324,1.89,3.47l-2.623,1.456q-.212-.382-.423-.765h0l-.12-.218v0l-.054-.1-.011-.02-.049-.09-.007-.013-.057-.1-.007-.013L30.6,371.2l-.015-.028-.042-.076-.014-.026-.054-.1-.009-.016-.044-.081-.02-.036-.036-.066-.019-.035-.051-.094-.016-.029-.036-.067-.026-.048-.025-.046-.03-.055-.017-.031-.12-.222,0-.005c-.188-.348-.373-.693-.56-1.042Zm-4.908-9.7c.566,1.182,1.15,2.377,1.735,3.55l-2.685,1.339-.027-.054-.012-.024-.033-.065-.017-.034-.049-.1-.025-.051-.024-.048-.025-.051-.025-.05-.027-.054-.022-.044-.046-.094-.016-.032-.033-.068-.021-.042-.03-.061-.02-.04-.048-.1-.005-.011-.044-.09-.017-.035-.034-.07-.017-.034-.043-.088-.006-.012-.049-.1-.014-.029-.036-.074-.016-.032-.043-.088-.006-.012-.05-.1-.015-.03-.035-.072-.017-.036-.035-.071-.015-.032-.047-.1-.018-.036-.031-.064-.022-.045-.028-.058-.021-.043-.038-.078-.031-.065-.022-.045-.029-.06-.016-.033-.032-.065-.007-.014L24.837,360l0-.009-.037-.077-.007-.015-.295-.613Zm-4.477-9.9c.514,1.206,1.044,2.425,1.577,3.623l-2.741,1.22c-.142-.32-.287-.646-.428-.967l-.014-.031-.025-.057-.025-.057-.018-.041-.045-.1L21,351.663l-.043-.1-.006-.015q-.5-1.137-.985-2.281l0-.007ZM18.687,338c.46,1.228.937,2.469,1.416,3.69l-2.792,1.1-.045-.115,0-.007-.036-.091-.018-.045-.022-.056-.021-.053-.014-.037-.052-.133-.006-.016-.03-.076-.008-.02-.132-.339-.006-.015-.031-.079,0-.013-.09-.233-.015-.039-.023-.059-.019-.05-.019-.05-.038-.1-.011-.029-.032-.083-.01-.026-.036-.093-.005-.013q-.358-.932-.708-1.867ZM15.1,327.738c.405,1.247.827,2.509,1.252,3.749l-2.838.973,0-.008q-.647-1.887-1.265-3.787Zm-3.13-10.406c.35,1.264.715,2.543,1.085,3.8l-2.878.847c-.377-1.282-.741-2.557-1.1-3.847ZM9.3,306.8c.294,1.278.6,2.571.916,3.843l-2.913.719q-.179-.725-.354-1.452l0-.007-.085-.356,0-.014-.025-.1,0-.014-.056-.234,0-.013-.024-.1-.005-.021-.024-.1,0-.014-.028-.117,0-.008-.025-.1-.006-.026-.021-.091-.006-.025-.053-.228,0-.021-.022-.094-.006-.025-.024-.1,0-.007-.028-.119v0l-.026-.11,0-.018-.024-.1,0-.01-.055-.24h0ZM7.1,296.157c.237,1.289.488,2.594.746,3.879l-2.941.59c-.192-.959-.377-1.909-.558-2.872l0-.019-.016-.084,0-.01-.047-.251-.009-.046-.011-.06-.01-.052-.01-.056-.016-.087-.007-.04-.016-.089-.007-.039-.014-.077-.007-.036-.017-.091,0-.017ZM5.37,285.429c.18,1.3.374,2.614.575,3.91l-2.965.46q-.2-1.294-.388-2.592v0l-.034-.234-.006-.042-.009-.065-.008-.059-.006-.04c-.044-.309-.087-.611-.13-.921Zm-1.259-10.8c.123,1.306.259,2.63.4,3.933l-2.982.33q-.137-1.24-.262-2.484v0l-.036-.364,0-.022-.009-.093,0-.031-.009-.089,0-.029-.011-.109,0-.051-.006-.058L1.18,275.5l0-.044-.007-.073,0-.02c-.014-.149-.029-.3-.043-.448Zm-.787-10.841c.067,1.311.145,2.639.232,3.948l-2.993.2-.011-.167,0-.068,0-.04-.005-.083,0-.03-.007-.1v-.011l-.016-.246v0l-.008-.122v0q-.016-.247-.031-.494v-.006q-.011-.184-.022-.368v-.011l-.006-.107v-.021l-.006-.1v-.015l-.014-.24v-.018l-.006-.1v-.023l-.006-.1v-.019L.395,265.2v-.008l-.006-.116v-.006q-.031-.561-.059-1.122Zm-.317-10.863c.01,1.311.03,2.64.061,3.95l-3,.07c-.005-.227-.01-.448-.015-.675v-.015l0-.086v-.038c0-.025,0-.043,0-.068s0-.073,0-.109v-.026l0-.1v-.02q0-.053,0-.107V255.7q-.01-.56-.018-1.12h0q0-.123,0-.246v-.156c0-.021,0-.042,0-.063s0-.035,0-.061,0-.024,0-.036q-.006-.532-.01-1.064ZM.16,241.945l3,.106c-.046,1.31-.083,2.64-.109,3.953l-3-.059c.009-.429.018-.876.029-1.305v-.032l0-.07v-.049c0-.025,0-.037,0-.062l0-.089V244.3l0-.1v-.034l0-.086v-.031l0-.1v-.017q.005-.184.01-.369v0q.007-.247.015-.494v-.01l0-.11v-.015l0-.111v-.01l0-.116v-.039l0-.069,0-.064v-.04l0-.081V242.4C.15,242.25.155,242.1.16,241.945Zm.628-10.98,2.991.236c-.1,1.306-.2,2.632-.28,3.941L.5,234.954c.063-.991.13-1.973.2-2.961v-.007l.005-.072,0-.047,0-.056.006-.075,0-.032Q.759,231.335.788,230.965Zm1.1-10.941,2.978.366c-.16,1.3-.312,2.62-.451,3.923l-2.983-.319,0-.027.006-.055.006-.054.011-.106,0-.033.009-.083,0-.037.009-.082,0-.033.012-.11h0l.027-.244v-.01L1.544,223v0q.076-.682.155-1.363v0l.014-.121v0l.028-.237,0-.033.009-.077.006-.048.007-.058L1.774,221l0-.019c.038-.32.076-.636.116-.956Zm1.583-10.887,2.959.5c-.217,1.293-.427,2.606-.623,3.9l-2.966-.449.046-.3,0-.022.011-.075.007-.048.009-.057.017-.108,0-.021.015-.1,0-.022.016-.106v-.009q.067-.43.135-.859v-.006L3.171,211l0-.024.015-.091,0-.03.016-.1,0-.016.018-.11.007-.042.011-.068.008-.05.01-.061.009-.054.009-.055.018-.11.007-.041.011-.066.007-.044.011-.065.007-.043.011-.066.006-.039.019-.115.009-.055L3.4,209.6l.01-.058.008-.051.013-.075.006-.035.019-.113,0-.017.017-.1Zm2.06-10.805,2.934.626c-.274,1.283-.541,2.586-.795,3.873l-2.944-.579q.325-1.653.672-3.3l.006-.029.016-.076.01-.049.009-.043Zm2.534-10.7,2.9.755c-.33,1.269-.655,2.559-.964,3.833l-2.915-.709c.26-1.071.533-2.16.807-3.225l0-.017.019-.073.009-.036.017-.065.017-.065.013-.048.026-.1.006-.022.027-.1v-.005Zm3-10.581,2.867.883c-.386,1.253-.767,2.527-1.132,3.786l-2.881-.837.158-.541,0-.008.025-.085,0-.015.05-.169,0-.005.019-.066.012-.04.018-.062.015-.049.016-.055.028-.094.012-.042.021-.072.012-.042.02-.069.012-.041.028-.094,0-.011.032-.108.01-.033.023-.078.011-.037.024-.079.009-.031.031-.105.01-.033.022-.075.013-.044.019-.065.013-.044.022-.073.022-.074.018-.059.018-.058.013-.044.019-.063.011-.036.074-.245,0-.009.027-.087,0-.005Q10.951,177.44,11.072,177.048Zm3.468-10.438,2.825,1.008c-.441,1.235-.877,2.49-1.3,3.731l-2.841-.963q.14-.414.282-.828h0l.038-.109.005-.015.077-.224.008-.023.029-.084.012-.034.026-.076.012-.036.035-.1.015-.043.021-.059.019-.054.018-.052.019-.055.016-.046.038-.111.013-.039.021-.06.015-.044.021-.061.014-.041.039-.111.014-.041.02-.057.017-.049.019-.054.019-.055.017-.048.035-.1.012-.033.027-.077.012-.035.029-.082.008-.023Q14.394,167.018,14.539,166.61Zm3.925-10.275,2.778,1.132c-.495,1.214-.986,2.449-1.462,3.671l-2.8-1.087c.176-.454.35-.9.529-1.349l0-.005.033-.083,0-.012.1-.252,0-.009.031-.077.009-.022.1-.253h0l.03-.076.01-.024.03-.075,0-.011.1-.237.014-.034.026-.064.015-.038.042-.105.018-.045.02-.05.024-.059.017-.042.03-.074.012-.029Zm4.375-10.093,2.726,1.253c-.548,1.191-1.094,2.4-1.623,3.6L21.2,149.89q.378-.857.762-1.712l0,0,.1-.223.005-.012.041-.091.013-.028.038-.083.01-.022.046-.1.014-.031.032-.072.018-.04.029-.065.018-.039.044-.1.012-.026.035-.077.016-.036.035-.076.011-.025Q22.658,146.636,22.839,146.243Zm4.815-9.89,2.668,1.372c-.6,1.166-1.2,2.354-1.78,3.53l-2.689-1.329q.36-.728.724-1.454l0,0,.055-.109v0l.055-.11,0-.007.047-.092.016-.031.036-.071.017-.034.041-.081.03-.059.025-.05.028-.056.019-.038.032-.063.007-.015.119-.235.007-.013C27.3,137.05,27.473,136.7,27.654,136.353Zm5.245-9.668,2.6,1.488c-.651,1.139-1.3,2.3-1.933,3.448l-2.628-1.446q.784-1.424,1.585-2.837v0l.058-.1,0-.007.055-.1.026-.045.025-.044.038-.068,0-.007Zm5.664-9.429,2.537,1.6c-.7,1.109-1.4,2.239-2.082,3.359l-2.562-1.56c.271-.444.541-.885.814-1.328l.015-.024.036-.059.027-.044.029-.047.056-.09.015-.024.049-.079.011-.018Q38.031,118.1,38.562,117.256Zm6.071-9.172,2.465,1.71c-.748,1.077-1.5,2.176-2.227,3.265l-2.492-1.671.13-.194.024-.036.034-.051.033-.048.016-.024.144-.213,0,0c.277-.411.559-.826.839-1.236l.016-.023.041-.06.025-.037.034-.05.057-.083.024-.035.044-.065.018-.027Q44.245,108.643,44.633,108.084Zm6.466-8.9L53.487,101c-.794,1.044-1.591,2.108-2.368,3.165L48.7,102.389c.312-.424.615-.833.929-1.255l.011-.015.049-.066.008-.011.152-.2.018-.025.045-.061.015-.02.151-.2.013-.017.049-.065.009-.012C50.469,100.017,50.781,99.6,51.1,99.186Zm6.848-8.607L60.254,92.5c-.839,1.008-1.681,2.037-2.5,3.058l-2.336-1.882.308-.382.016-.02.054-.066.025-.031.046-.057.065-.08.02-.024.05-.062.012-.015c.376-.463.742-.911,1.121-1.372l.006-.008.039-.048.037-.044.029-.035.066-.08,0,0Q57.628,90.963,57.948,90.579Zm7.217-8.3L67.385,84.3c-.882.971-1.768,1.962-2.634,2.946L62.5,85.26l.189-.214.027-.03.041-.046.07-.079.014-.016.071-.081,0,0Q64.031,83.526,65.165,82.278ZM72.736,74.3l2.131,2.112c-.923.931-1.852,1.883-2.76,2.829l-2.164-2.078Q71.328,75.72,72.736,74.3Zm7.912-7.641,2.037,2.2c-.963.89-1.932,1.8-2.881,2.706L77.733,69.4l.017-.017.038-.037.068-.065.041-.039.044-.042.035-.034.045-.043.033-.031.085-.08.029-.028.048-.046.03-.028.05-.047.026-.024.107-.1.01-.01.053-.051.025-.024.053-.05.017-.016.184-.174.014-.013.062-.058,0,0c.6-.565,1.191-1.118,1.8-1.677Zm8.237-7.289,1.939,2.289c-1,.847-2.009,1.715-3,2.578l-1.975-2.258.022-.019.043-.037.037-.033.08-.07.022-.019.068-.059.02-.017.081-.07.006,0,.185-.161,0,0,.564-.489h0l.281-.242.005,0,.088-.076.006,0,.18-.154.019-.016.072-.062.018-.015.086-.074.015-.013.071-.06.028-.024.058-.05.031-.027.069-.059.048-.041.044-.037.047-.04.035-.03.049-.042.022-.019.109-.093.019-.016.057-.048.023-.019.272-.231.006-.005Zm8.547-6.923,1.837,2.372c-1.037.8-2.081,1.625-3.105,2.445L94.289,54.92q.63-.5,1.264-1l.015-.012.076-.06.02-.016.081-.064.051-.04.027-.022.063-.05,0,0q.768-.6,1.541-1.2Zm8.841-6.544L108,48.351c-1.071.757-2.15,1.533-3.209,2.307l-1.77-2.422.441-.322.028-.021.053-.039.055-.04.046-.033.075-.054.023-.017.078-.057.014-.01Q105.05,46.766,106.273,45.9Zm9.118-6.152,1.623,2.523c-1.1.709-2.215,1.438-3.307,2.165l-1.663-2.5.618-.41.012-.008.1-.064h0l.1-.067.012-.008.084-.055.023-.015.083-.054.014-.009.1-.065.011-.007.082-.054.028-.018.074-.049.022-.014.095-.062.019-.012.076-.05.03-.02.068-.045.029-.019.092-.06.02-.013.072-.047.037-.024.06-.039.035-.023.084-.055.039-.025.056-.037.046-.03.044-.029.052-.034.031-.02.126-.082.006,0,.074-.048.008-.005.785-.507ZM124.77,34l1.511,2.592c-1.133.66-2.276,1.339-3.4,2.018l-1.552-2.567.061-.037.027-.017.051-.031.049-.03.044-.026.071-.043.022-.013.1-.058.023-.014.081-.049.019-.011.31-.186.007,0,.639-.382,0,0,.316-.188.01-.006.092-.055.014-.008.2-.118.03-.018.065-.039.037-.022.059-.035.087-.051.033-.019.067-.04.017-.01.91-.533Zm9.622-5.33,1.4,2.656c-1.161.61-2.333,1.238-3.484,1.867l-1.438-2.633q1.094-.6,2.194-1.184l.013-.007.094-.05.013-.007.105-.056,0,0,.094-.05.032-.017.067-.035.038-.02.074-.039.053-.028.064-.034.047-.025.052-.027.048-.025.052-.028.08-.042.053-.028.051-.027.044-.023.055-.029.043-.022.1-.052.039-.021Zm9.846-4.9,1.278,2.714c-1.186.558-2.385,1.134-3.562,1.711L140.633,25.5c.427-.209.858-.419,1.287-.626l.01,0,.241-.116.013-.006.07-.034.025-.012.069-.033.022-.011.225-.108.025-.012.07-.033.022-.011.234-.112.012-.006.078-.037.011-.005c.4-.191.79-.376,1.192-.565Zm10.052-4.464,1.157,2.768c-1.209.505-2.432,1.028-3.633,1.553l-1.2-2.749q1.542-.674,3.095-1.327l.01,0,.11-.046.016-.007.082-.034.059-.025.034-.014.273-.114Zm10.24-4.016,1.034,2.816c-1.231.452-2.475.92-3.7,1.391l-1.079-2.8.7-.268.007,0,.1-.039.02-.007.1-.037.014-.005.11-.042.017-.006.087-.033.036-.014.074-.028.034-.013.1-.039.03-.011.074-.028.044-.016.062-.024.046-.017.076-.029.039-.015.087-.033.047-.018.06-.022.047-.018.064-.024.041-.015.1-.037.041-.015.064-.024.046-.017.065-.024.038-.014.1-.037.041-.015.064-.024.048-.018.056-.021.05-.018.064-.024.078-.029.056-.021.056-.021.047-.017.056-.021.045-.016.143-.053h0l.074-.027.024-.009.076-.028.016-.006Zm10.407-3.56.908,2.859c-1.25.4-2.513.81-3.756,1.226l-.954-2.844Q173.029,12.338,174.937,11.732Zm10.555-3.1.781,2.9c-1.266.341-2.547.7-3.808,1.06l-.827-2.884.952-.271.025-.007L182.7,9.4l.029-.008.092-.026.02-.006.1-.029.044-.012.062-.017.054-.015.048-.014.061-.017.014,0,.152-.042.028-.008.077-.021.021-.006q.991-.276,1.984-.544Zm10.682-2.629.652,2.928c-1.281.285-2.577.585-3.852.891l-.7-2.917c.709-.17,1.413-.336,2.125-.5l.019,0,.08-.018.026-.006.227-.052.056-.013.049-.011.068-.016.04-.009.228-.052.009,0Zm10.785-2.155.523,2.954c-1.292.229-2.6.471-3.886.72l-.57-2.945.024,0,.081-.016.035-.007.086-.017.026-.005.229-.044.024,0,.093-.018.023,0,.105-.02.01,0,.12-.023h0L204,4.394l.025,0,.1-.019.016,0,.238-.045h.008l.109-.02.016,0,.36-.067h0l.121-.023h0Q205.973,4.026,206.959,3.851Zm10.869-1.678.393,2.974c-1.3.172-2.615.356-3.911.548l-.44-2.968.122-.018h0l.111-.016.017,0,.116-.017.018,0,.089-.013.061-.009.042-.006.074-.011.021,0c1.09-.159,2.19-.311,3.284-.456Zm10.933-1.2.262,2.989c-1.306.115-2.63.241-3.933.377l-.31-2.984.863-.088.036,0,.069-.007.068-.007.03,0C226.811,1.149,227.793,1.057,228.761.972ZM239.737.248l.132,3c-1.311.058-2.64.127-3.949.206l-.18-2.995,1-.058h0l.371-.02h.005l.117-.006h.007Q238.487.3,239.737.248Zm11-.248,0,3c-1.313,0-2.644.013-3.956.035l-.05-3,.812-.012h.21l.176,0h.809l.369,0h0L250.228,0h.507Z" transform="translate(38 38)" fill="#fff"/>
  </g>
</svg>
